<svg width="40" height="40" viewBox="0 0 40 40" fill="none" xmlns="http://www.w3.org/2000/svg">
<path d="M32.0865 34.9731L28.5509 35.982L25.7497 38.3635C24.6839 39.2697 23.3669 39.8289 21.9747 39.9666C20.5826 40.1043 19.1815 39.8139 17.9588 39.134L14.7454 37.3474L11.0807 37.0506C9.68631 36.9377 8.35959 36.4019 7.27782 35.5149C6.19605 34.6279 5.41076 33.4318 5.02689 32.0865L4.018 28.5509L1.63648 25.7497C0.730338 24.6839 0.171057 23.3669 0.0333706 21.9747C-0.104316 20.5826 0.186158 19.1815 0.865969 17.9589L2.65262 14.7455L2.94938 11.0807C3.06229 9.68633 3.59807 8.3596 4.48512 7.27784C5.37216 6.19607 6.56823 5.41078 7.91348 5.0269L11.4491 4.01802L14.2503 1.63648C15.3161 0.730342 16.6331 0.17106 18.0253 0.0333719C19.4174 -0.104316 20.8185 0.186152 22.0411 0.865956L25.2546 2.65264L28.9194 2.9494C30.3137 3.06231 31.6405 3.59809 32.7222 4.48513C33.804 5.37217 34.5893 6.56823 34.9732 7.91348L35.982 11.4491L38.3636 14.2503C39.2697 15.3162 39.829 16.6331 39.9667 18.0253C40.1044 19.4175 39.8139 20.8185 39.1341 22.0412L37.3474 25.2546L37.0507 28.9193C36.9377 30.3137 36.402 31.6404 35.5149 32.7222C34.6279 33.804 33.4318 34.5892 32.0865 34.9731V34.9731Z" fill="url(#paint0_linear_1019_15298)"/>
<path d="M33.9928 20.3294C33.9928 27.8665 27.8775 33.9776 20.3327 33.9776C12.7878 33.9776 6.67261 27.8665 6.67261 20.3294C6.67261 12.7923 12.7878 6.68118 20.3327 6.68118C27.8775 6.68118 33.9928 12.7923 33.9928 20.3294Z" fill="#FFEBB6" stroke="url(#paint1_linear_1019_15298)" stroke-width="1.5"/>
<path d="M28.7564 17.7062C28.9064 19.9895 26.4897 21.8062 25.4231 24.2562C25.1231 25.6562 24.8897 27.1395 24.4397 27.3395C24.4231 27.3395 24.4231 27.3562 24.4064 27.3562L24.2564 27.2895C24.2535 27.5913 24.2256 27.8924 24.1731 28.1895L24.1564 28.2062C22.5915 27.0316 20.6594 26.4526 18.7064 26.5729C17.5741 26.7013 16.4798 27.0586 15.4897 27.6229H15.4731V27.6062L15.4397 26.6062C15.4231 26.6062 15.3897 26.6229 15.3731 26.6229C15.3564 26.6229 15.3564 26.6229 15.3564 26.6395H15.3231C14.6846 25.9218 14.2475 25.0477 14.0564 24.1062C13.9544 23.7028 13.8092 23.3117 13.6231 22.9395C13.4427 21.8913 13.1407 20.8677 12.7231 19.8895C12.5397 19.4062 12.3564 18.9062 12.1897 18.4062C12.0065 17.5424 12.1058 16.6426 12.4731 15.8395L12.5564 15.7062C12.9819 15.0506 13.6349 14.5756 14.3897 14.3729C15.1532 14.2609 15.8918 14.0185 16.5731 13.6562C17.0846 13.3929 17.628 13.1969 18.1897 13.0729C19.7283 12.9165 21.282 13.0122 22.7897 13.3562C22.9231 13.3895 23.0731 13.4229 23.2564 13.4562C24.7095 13.6847 26.0553 14.3605 27.1064 15.3895C27.141 15.4325 27.1801 15.4716 27.2231 15.5062C27.2897 15.5895 27.3564 15.6562 27.4231 15.7395C27.5064 15.8229 27.5897 15.9229 27.6731 16.0062C27.6897 16.0395 27.7064 16.0562 27.7231 16.0895C28.1145 16.5969 28.4603 17.1379 28.7564 17.7062Z" fill="#875A22"/>
<path d="M28.6563 17.2062C28.8063 19.4895 26.3897 21.3062 25.323 23.7562C25.023 25.1562 24.7897 26.6395 24.3397 26.8395C24.323 26.8395 24.323 26.8562 24.3063 26.8562L24.1563 26.7895C24.1534 27.0913 24.1255 27.3924 24.073 27.6895L24.0563 27.7062C22.4914 26.5316 20.5593 25.9526 18.6063 26.0729C17.474 26.2013 16.3797 26.5586 15.3896 27.1229H15.373V27.1062L15.3396 26.1062C15.323 26.1062 15.2896 26.1229 15.273 26.1229C15.2563 26.1229 15.2563 26.1229 15.2563 26.1395H15.223C14.5845 25.4218 14.1474 24.5477 13.9563 23.6062C13.8544 23.2028 13.7091 22.8117 13.523 22.4395C13.3426 21.3913 13.0406 20.3677 12.623 19.3895C12.4396 18.9062 12.2563 18.4062 12.0896 17.9062C11.9064 17.0424 12.0057 16.1426 12.373 15.3395L12.4563 15.2062C12.8818 14.5506 13.5348 14.0756 14.2896 13.8729C15.0531 13.7609 15.7917 13.5185 16.473 13.1562C16.9845 12.8929 17.5279 12.6969 18.0896 12.5729C19.6282 12.4165 21.1819 12.5122 22.6897 12.8562C22.823 12.8895 22.973 12.9229 23.1563 12.9562C24.6094 13.1847 25.9552 13.8605 27.0063 14.8895C27.0409 14.9325 27.08 14.9716 27.123 15.0062C27.1896 15.0895 27.2563 15.1562 27.323 15.2395C27.4063 15.3229 27.4897 15.4229 27.573 15.5062C27.5897 15.5395 27.6063 15.5562 27.623 15.5895C28.0144 16.0969 28.3602 16.6379 28.6563 17.2062Z" fill="url(#paint2_linear_1019_15298)"/>
<defs>
<linearGradient id="paint0_linear_1019_15298" x1="20.2842" y1="0.0216478" x2="21" y2="40.0001" gradientUnits="userSpaceOnUse">
<stop offset="0.149195" stop-color="#E9AC51"/>
<stop offset="1" stop-color="#936126"/>
</linearGradient>
<linearGradient id="paint1_linear_1019_15298" x1="17.0001" y1="35.0001" x2="27.0002" y2="2.49995" gradientUnits="userSpaceOnUse">
<stop stop-color="#C49951"/>
<stop offset="1" stop-color="#FFEABB"/>
</linearGradient>
<linearGradient id="paint2_linear_1019_15298" x1="19.8333" y1="13.3333" x2="19.8333" y2="25.8333" gradientUnits="userSpaceOnUse">
<stop stop-color="#DA9F4A"/>
<stop offset="1" stop-color="#946227"/>
</linearGradient>
</defs>
</svg>
